<svg width="141" height="22" viewBox="0 0 141 22" fill="none" xmlns="http://www.w3.org/2000/svg">
<path d="M36.848 13.008H30.608L29.264 16H28.032L33.152 4.8H34.32L39.44 16H38.192L36.848 13.008ZM36.416 12.048L33.728 6.032L31.04 12.048H36.416ZM48.6546 4.128V16H47.5666V14.336C47.2253 14.9013 46.772 15.3333 46.2066 15.632C45.652 15.9307 45.0226 16.08 44.3186 16.08C43.5293 16.08 42.8146 15.8987 42.1746 15.536C41.5346 15.1733 41.0333 14.6667 40.6706 14.016C40.308 13.3653 40.1266 12.624 40.1266 11.792C40.1266 10.96 40.308 10.2187 40.6706 9.568C41.0333 8.91733 41.5346 8.416 42.1746 8.064C42.8146 7.70133 43.5293 7.52 44.3186 7.52C45.0013 7.52 45.6146 7.664 46.1586 7.952C46.7133 8.22933 47.1666 8.64 47.5186 9.184V4.128H48.6546ZM44.4146 15.072C45.0013 15.072 45.5293 14.9387 45.9986 14.672C46.4786 14.3947 46.852 14.0053 47.1186 13.504C47.396 13.0027 47.5346 12.432 47.5346 11.792C47.5346 11.152 47.396 10.5813 47.1186 10.08C46.852 9.57867 46.4786 9.19467 45.9986 8.928C45.5293 8.65067 45.0013 8.512 44.4146 8.512C43.8173 8.512 43.2786 8.65067 42.7986 8.928C42.3293 9.19467 41.956 9.57867 41.6786 10.08C41.412 10.5813 41.2786 11.152 41.2786 11.792C41.2786 12.432 41.412 13.0027 41.6786 13.504C41.956 14.0053 42.3293 14.3947 42.7986 14.672C43.2786 14.9387 43.8173 15.072 44.4146 15.072ZM59.4984 4.128V16H58.4104V14.336C58.069 14.9013 57.6157 15.3333 57.0504 15.632C56.4957 15.9307 55.8664 16.08 55.1624 16.08C54.373 16.08 53.6584 15.8987 53.0184 15.536C52.3784 15.1733 51.877 14.6667 51.5144 14.016C51.1517 13.3653 50.9704 12.624 50.9704 11.792C50.9704 10.96 51.1517 10.2187 51.5144 9.568C51.877 8.91733 52.3784 8.416 53.0184 8.064C53.6584 7.70133 54.373 7.52 55.1624 7.52C55.845 7.52 56.4584 7.664 57.0024 7.952C57.557 8.22933 58.0104 8.64 58.3624 9.184V4.128H59.4984ZM55.2584 15.072C55.845 15.072 56.373 14.9387 56.8424 14.672C57.3224 14.3947 57.6957 14.0053 57.9624 13.504C58.2397 13.0027 58.3784 12.432 58.3784 11.792C58.3784 11.152 58.2397 10.5813 57.9624 10.08C57.6957 9.57867 57.3224 9.19467 56.8424 8.928C56.373 8.65067 55.845 8.512 55.2584 8.512C54.661 8.512 54.1224 8.65067 53.6424 8.928C53.173 9.19467 52.7997 9.57867 52.5224 10.08C52.2557 10.5813 52.1224 11.152 52.1224 11.792C52.1224 12.432 52.2557 13.0027 52.5224 13.504C52.7997 14.0053 53.173 14.3947 53.6424 14.672C54.1224 14.9387 54.661 15.072 55.2584 15.072ZM70.1776 16.096C69.3456 16.096 68.5456 15.9627 67.7776 15.696C67.0203 15.4293 66.4336 15.0773 66.0176 14.64L66.4816 13.728C66.887 14.1333 67.4256 14.464 68.0976 14.72C68.7696 14.9653 69.463 15.088 70.1776 15.088C71.1803 15.088 71.9323 14.9067 72.4336 14.544C72.935 14.1707 73.1856 13.6907 73.1856 13.104C73.1856 12.656 73.047 12.2987 72.7696 12.032C72.503 11.7653 72.1723 11.5627 71.7776 11.424C71.383 11.2747 70.8336 11.1147 70.1296 10.944C69.287 10.7307 68.615 10.528 68.1136 10.336C67.6123 10.1333 67.1803 9.82933 66.8176 9.424C66.4656 9.01867 66.2896 8.46933 66.2896 7.776C66.2896 7.21067 66.439 6.69867 66.7376 6.24C67.0363 5.77067 67.495 5.39733 68.1136 5.12C68.7323 4.84267 69.5003 4.704 70.4176 4.704C71.0576 4.704 71.6816 4.79467 72.2896 4.976C72.9083 5.14667 73.4416 5.38667 73.8896 5.696L73.4896 6.64C73.0203 6.33067 72.519 6.10133 71.9856 5.952C71.4523 5.792 70.9296 5.712 70.4176 5.712C69.4363 5.712 68.695 5.904 68.1936 6.288C67.703 6.66133 67.4576 7.14667 67.4576 7.744C67.4576 8.192 67.591 8.55467 67.8576 8.832C68.135 9.09867 68.4763 9.30667 68.8816 9.456C69.2976 9.59467 69.8523 9.74933 70.5456 9.92C71.367 10.1227 72.0283 10.3253 72.5296 10.528C73.0416 10.72 73.4736 11.0187 73.8256 11.424C74.1776 11.8187 74.3536 12.3573 74.3536 13.04C74.3536 13.6053 74.199 14.1227 73.8896 14.592C73.591 15.0507 73.127 15.4187 72.4976 15.696C71.8683 15.9627 71.095 16.096 70.1776 16.096ZM84.0214 12.144H76.9814C77.0454 13.0187 77.3814 13.728 77.9894 14.272C78.5974 14.8053 79.3654 15.072 80.2934 15.072C80.816 15.072 81.296 14.9813 81.7334 14.8C82.1707 14.608 82.5494 14.3307 82.8694 13.968L83.5094 14.704C83.136 15.152 82.6667 15.4933 82.1014 15.728C81.5467 15.9627 80.9334 16.08 80.2614 16.08C79.3974 16.08 78.6294 15.8987 77.9574 15.536C77.296 15.1627 76.7787 14.6507 76.4054 14C76.032 13.3493 75.8454 12.6133 75.8454 11.792C75.8454 10.9707 76.0214 10.2347 76.3734 9.584C76.736 8.93333 77.2267 8.42667 77.8454 8.064C78.4747 7.70133 79.1787 7.52 79.9574 7.52C80.736 7.52 81.4347 7.70133 82.0534 8.064C82.672 8.42667 83.1574 8.93333 83.5094 9.584C83.8614 10.224 84.0374 10.96 84.0374 11.792L84.0214 12.144ZM79.9574 8.496C79.1467 8.496 78.464 8.75733 77.9094 9.28C77.3654 9.792 77.056 10.464 76.9814 11.296H82.9494C82.8747 10.464 82.56 9.792 82.0054 9.28C81.4614 8.75733 80.7787 8.496 79.9574 8.496ZM87.4376 9.232C87.7043 8.66667 88.099 8.24 88.6216 7.952C89.155 7.664 89.811 7.52 90.5896 7.52V8.624L90.3176 8.608C89.4323 8.608 88.739 8.88 88.2376 9.424C87.7363 9.968 87.4856 10.7307 87.4856 11.712V16H86.3496V7.584H87.4376V9.232ZM100.078 7.584L96.3339 16H95.1659L91.4379 7.584H92.6219L95.7739 14.752L98.9579 7.584H100.078ZM101.678 7.584H102.814V16H101.678V7.584ZM102.254 5.744C102.019 5.744 101.822 5.664 101.662 5.504C101.502 5.344 101.422 5.152 101.422 4.928C101.422 4.71467 101.502 4.528 101.662 4.368C101.822 4.208 102.019 4.128 102.254 4.128C102.488 4.128 102.686 4.208 102.846 4.368C103.006 4.51733 103.086 4.69867 103.086 4.912C103.086 5.14667 103.006 5.344 102.846 5.504C102.686 5.664 102.488 5.744 102.254 5.744ZM109.463 16.08C108.631 16.08 107.884 15.8987 107.223 15.536C106.572 15.1733 106.06 14.6667 105.687 14.016C105.313 13.3547 105.127 12.6133 105.127 11.792C105.127 10.9707 105.313 10.2347 105.687 9.584C106.06 8.93333 106.572 8.42667 107.223 8.064C107.884 7.70133 108.631 7.52 109.463 7.52C110.188 7.52 110.833 7.664 111.399 7.952C111.975 8.22933 112.428 8.64 112.759 9.184L111.911 9.76C111.633 9.344 111.281 9.03467 110.855 8.832C110.428 8.61867 109.964 8.512 109.463 8.512C108.855 8.512 108.305 8.65067 107.815 8.928C107.335 9.19467 106.956 9.57867 106.679 10.08C106.412 10.5813 106.279 11.152 106.279 11.792C106.279 12.4427 106.412 13.0187 106.679 13.52C106.956 14.0107 107.335 14.3947 107.815 14.672C108.305 14.9387 108.855 15.072 109.463 15.072C109.964 15.072 110.428 14.9707 110.855 14.768C111.281 14.5653 111.633 14.256 111.911 13.84L112.759 14.416C112.428 14.96 111.975 15.376 111.399 15.664C110.823 15.9413 110.177 16.08 109.463 16.08ZM122.178 12.144H115.138C115.202 13.0187 115.538 13.728 116.146 14.272C116.754 14.8053 117.522 15.072 118.45 15.072C118.972 15.072 119.452 14.9813 119.89 14.8C120.327 14.608 120.706 14.3307 121.026 13.968L121.666 14.704C121.292 15.152 120.823 15.4933 120.258 15.728C119.703 15.9627 119.09 16.08 118.418 16.08C117.554 16.08 116.786 15.8987 116.114 15.536C115.452 15.1627 114.935 14.6507 114.562 14C114.188 13.3493 114.002 12.6133 114.002 11.792C114.002 10.9707 114.178 10.2347 114.53 9.584C114.892 8.93333 115.383 8.42667 116.002 8.064C116.631 7.70133 117.335 7.52 118.114 7.52C118.892 7.52 119.591 7.70133 120.21 8.064C120.828 8.42667 121.314 8.93333 121.666 9.584C122.018 10.224 122.194 10.96 122.194 11.792L122.178 12.144ZM118.114 8.496C117.303 8.496 116.62 8.75733 116.066 9.28C115.522 9.792 115.212 10.464 115.138 11.296H121.106C121.031 10.464 120.716 9.792 120.162 9.28C119.618 8.75733 118.935 8.496 118.114 8.496ZM126.762 16.08C126.079 16.08 125.423 15.984 124.794 15.792C124.175 15.5893 123.69 15.3387 123.338 15.04L123.85 14.144C124.202 14.4213 124.645 14.6507 125.178 14.832C125.711 15.0027 126.266 15.088 126.842 15.088C127.61 15.088 128.175 14.9707 128.538 14.736C128.911 14.4907 129.098 14.1493 129.098 13.712C129.098 13.4027 128.997 13.1627 128.794 12.992C128.591 12.8107 128.335 12.6773 128.026 12.592C127.717 12.496 127.306 12.4053 126.794 12.32C126.111 12.192 125.562 12.064 125.146 11.936C124.73 11.7973 124.373 11.568 124.074 11.248C123.786 10.928 123.642 10.4853 123.642 9.92C123.642 9.216 123.935 8.64 124.522 8.192C125.109 7.744 125.925 7.52 126.97 7.52C127.514 7.52 128.058 7.59467 128.602 7.744C129.146 7.88267 129.594 8.06933 129.946 8.304L129.45 9.216C128.757 8.736 127.93 8.496 126.97 8.496C126.245 8.496 125.695 8.624 125.322 8.88C124.959 9.136 124.778 9.472 124.778 9.888C124.778 10.208 124.879 10.464 125.082 10.656C125.295 10.848 125.557 10.992 125.866 11.088C126.175 11.1733 126.602 11.264 127.146 11.36C127.818 11.488 128.357 11.616 128.762 11.744C129.167 11.872 129.514 12.0907 129.802 12.4C130.09 12.7093 130.234 13.136 130.234 13.68C130.234 14.416 129.925 15.0027 129.306 15.44C128.698 15.8667 127.85 16.08 126.762 16.08Z" fill="#868686"/>
<path d="M9.79688 9.875V10.2031H10.125H15.75C16.1898 10.2031 16.5469 10.5602 16.5469 11C16.5469 11.4398 16.1898 11.7969 15.75 11.7969H10.125H9.79688V12.125V17.75C9.79688 18.1898 9.43978 18.5469 9 18.5469C8.56022 18.5469 8.20312 18.1898 8.20312 17.75V12.125V11.7969H7.875H2.25C1.81022 11.7969 1.45312 11.4398 1.45312 11C1.45312 10.5602 1.81022 10.2031 2.25 10.2031H7.875H8.20312V9.875V4.25C8.20312 3.81022 8.56022 3.45312 9 3.45312C9.43978 3.45312 9.79688 3.81022 9.79688 4.25V9.875Z" stroke="#868686" stroke-width="0.65625"/>
</svg>
