<svg width="24" height="24" viewBox="0 0 24 24" fill="none" xmlns="http://www.w3.org/2000/svg">
<g clip-path="url(#clip0)">
<path d="M9.42002 20.4236C7.78314 20.42 6.14646 20.4127 4.50977 20.402C3.30452 20.3793 2.31246 19.0055 2.79771 17.8183C3.07727 17.1341 3.78433 16.6571 4.53264 16.6522H5.65896C5.65896 14.7534 5.65333 12.8546 5.65914 10.9558C5.68183 8.54883 7.17246 6.22683 9.38796 5.21583L9.40896 5.20645C9.40896 4.57008 9.38064 3.88102 9.57358 3.36202C9.95102 2.34783 10.9412 1.64564 12.0666 1.65239C13.4346 1.67789 14.6498 2.86158 14.659 4.27608V5.20645C14.7023 5.22595 14.7456 5.24583 14.7885 5.26627C16.9433 6.29883 18.4016 8.58521 18.409 10.9946V16.6522C19.0506 16.6522 19.7216 16.5624 20.2849 16.8088C21.3666 17.282 21.75 18.8988 20.9066 19.8046C20.5624 20.174 20.068 20.3925 19.5581 20.402C17.9329 20.4127 16.3075 20.4198 14.6822 20.4236C14.6593 20.6853 14.5433 20.9784 14.4422 21.1948C14.0768 21.9778 13.2566 22.5159 12.3709 22.5328C11.8765 22.536 11.3803 22.5571 10.93 22.3921C10.1106 22.0923 9.50777 21.302 9.42002 20.4236ZM13.864 20.5897H10.204C10.3712 21.2566 11.0018 21.7693 11.7066 21.7828C12.1028 21.7854 12.4963 21.8233 12.8621 21.6945C13.3517 21.522 13.7372 21.0952 13.864 20.5897ZM12.0107 2.40239C11.0365 2.42058 10.1651 3.26339 10.159 4.27833V5.4547C10.1383 5.76689 10.0326 5.75095 9.72902 5.88483C7.78371 6.75671 6.42977 8.77739 6.40896 10.9605V17.0272C6.40896 17.0272 6.33058 17.3827 6.03396 17.4022C5.01283 17.4022 3.81471 17.252 3.48189 18.1275C3.23008 18.7901 3.76221 19.6282 4.50471 19.6518C9.52333 19.7467 14.5446 19.7469 19.5632 19.6518C20.4103 19.625 21.0026 18.4374 20.3483 17.7511C20.1388 17.5312 19.8405 17.4043 19.5326 17.4022H18.034C17.8311 17.3889 17.6768 17.3 17.659 17.0272C17.659 15.0048 17.665 12.9826 17.6588 10.9603C17.6389 8.76389 16.2385 6.64908 14.1435 5.80233C14.1435 5.80233 13.926 5.71327 13.909 5.4547C13.909 4.59708 13.983 3.68227 13.4696 3.0712C13.1091 2.6422 12.6086 2.39883 12.0107 2.40239Z" fill="#89BAFF"/>
</g>
<defs>
<clipPath id="clip0">
<rect width="24" height="24" fill="white"/>
</clipPath>
</defs>
</svg>
