<svg width="134" height="38" viewBox="0 0 134 38" fill="none" xmlns="http://www.w3.org/2000/svg">
<path d="M12.4136 14.108C11.1656 14.108 10.0376 13.832 9.02965 13.28C8.03365 12.728 7.24765 11.966 6.67165 10.994C6.10765 10.01 5.82565 8.912 5.82565 7.7C5.82565 6.488 6.10765 5.396 6.67165 4.424C7.24765 3.44 8.03965 2.672 9.04765 2.12C10.0556 1.568 11.1836 1.292 12.4316 1.292C13.3676 1.292 14.2316 1.448 15.0236 1.76C15.8156 2.072 16.4876 2.528 17.0396 3.128L16.1936 3.974C15.2096 2.978 13.9676 2.48 12.4676 2.48C11.4716 2.48 10.5656 2.708 9.74965 3.164C8.93365 3.62 8.29165 4.244 7.82365 5.036C7.36765 5.828 7.13965 6.716 7.13965 7.7C7.13965 8.684 7.36765 9.572 7.82365 10.364C8.29165 11.156 8.93365 11.78 9.74965 12.236C10.5656 12.692 11.4716 12.92 12.4676 12.92C13.9796 12.92 15.2216 12.416 16.1936 11.408L17.0396 12.254C16.4876 12.854 15.8096 13.316 15.0056 13.64C14.2136 13.952 13.3496 14.108 12.4136 14.108ZM27.5651 4.532L22.8311 15.134C22.4471 16.022 22.0031 16.652 21.4991 17.024C20.9951 17.396 20.3891 17.582 19.6811 17.582C19.2251 17.582 18.7991 17.51 18.4031 17.366C18.0071 17.222 17.6651 17.006 17.3771 16.718L17.9711 15.764C18.4511 16.244 19.0271 16.484 19.6991 16.484C20.1311 16.484 20.4971 16.364 20.7971 16.124C21.1091 15.884 21.3971 15.476 21.6611 14.9L22.0751 13.982L17.8451 4.532H19.1771L22.7411 12.578L26.3051 4.532H27.5651ZM34.243 4.46C35.131 4.46 35.935 4.664 36.655 5.072C37.375 5.468 37.939 6.032 38.347 6.764C38.755 7.496 38.959 8.33 38.959 9.266C38.959 10.202 38.755 11.036 38.347 11.768C37.939 12.5 37.375 13.07 36.655 13.478C35.935 13.886 35.131 14.09 34.243 14.09C33.451 14.09 32.737 13.922 32.101 13.586C31.477 13.25 30.973 12.764 30.589 12.128V14H29.365V0.643999H30.643V6.332C31.039 5.72 31.543 5.258 32.155 4.946C32.779 4.622 33.475 4.46 34.243 4.46ZM34.153 12.956C34.813 12.956 35.413 12.806 35.953 12.506C36.493 12.194 36.913 11.756 37.213 11.192C37.525 10.628 37.681 9.986 37.681 9.266C37.681 8.546 37.525 7.904 37.213 7.34C36.913 6.776 36.493 6.344 35.953 6.044C35.413 5.732 34.813 5.576 34.153 5.576C33.481 5.576 32.875 5.732 32.335 6.044C31.807 6.344 31.387 6.776 31.075 7.34C30.775 7.904 30.625 8.546 30.625 9.266C30.625 9.986 30.775 10.628 31.075 11.192C31.387 11.756 31.807 12.194 32.335 12.506C32.875 12.806 33.481 12.956 34.153 12.956ZM49.8082 9.662H41.8882C41.9602 10.646 42.3382 11.444 43.0222 12.056C43.7062 12.656 44.5702 12.956 45.6142 12.956C46.2022 12.956 46.7422 12.854 47.2342 12.65C47.7262 12.434 48.1522 12.122 48.5122 11.714L49.2322 12.542C48.8122 13.046 48.2842 13.43 47.6482 13.694C47.0242 13.958 46.3342 14.09 45.5782 14.09C44.6062 14.09 43.7422 13.886 42.9862 13.478C42.2422 13.058 41.6602 12.482 41.2402 11.75C40.8202 11.018 40.6102 10.19 40.6102 9.266C40.6102 8.342 40.8082 7.514 41.2042 6.782C41.6122 6.05 42.1642 5.48 42.8602 5.072C43.5682 4.664 44.3602 4.46 45.2362 4.46C46.1122 4.46 46.8982 4.664 47.5942 5.072C48.2902 5.48 48.8362 6.05 49.2322 6.782C49.6282 7.502 49.8262 8.33 49.8262 9.266L49.8082 9.662ZM45.2362 5.558C44.3242 5.558 43.5562 5.852 42.9322 6.44C42.3202 7.016 41.9722 7.772 41.8882 8.708H48.6022C48.5182 7.772 48.1642 7.016 47.5402 6.44C46.9282 5.852 46.1602 5.558 45.2362 5.558ZM53.6515 6.386C53.9515 5.75 54.3955 5.27 54.9835 4.946C55.5835 4.622 56.3215 4.46 57.1975 4.46V5.702L56.8915 5.684C55.8955 5.684 55.1155 5.99 54.5515 6.602C53.9875 7.214 53.7055 8.072 53.7055 9.176V14H52.4275V4.532H53.6515V6.386ZM63.0621 14.108C62.1261 14.108 61.2261 13.958 60.3621 13.658C59.5101 13.358 58.8501 12.962 58.3821 12.47L58.9041 11.444C59.3601 11.9 59.9661 12.272 60.7221 12.56C61.4781 12.836 62.2581 12.974 63.0621 12.974C64.1901 12.974 65.0361 12.77 65.6001 12.362C66.1641 11.942 66.4461 11.402 66.4461 10.742C66.4461 10.238 66.2901 9.836 65.9781 9.536C65.6781 9.236 65.3061 9.008 64.8621 8.852C64.4181 8.684 63.8001 8.504 63.0081 8.312C62.0601 8.072 61.3041 7.844 60.7401 7.628C60.1761 7.4 59.6901 7.058 59.2821 6.602C58.8861 6.146 58.6881 5.528 58.6881 4.748C58.6881 4.112 58.8561 3.536 59.1921 3.02C59.5281 2.492 60.0441 2.072 60.7401 1.76C61.4361 1.448 62.3001 1.292 63.3321 1.292C64.0521 1.292 64.7541 1.394 65.4381 1.598C66.1341 1.79 66.7341 2.06 67.2381 2.408L66.7881 3.47C66.2601 3.122 65.6961 2.864 65.0961 2.696C64.4961 2.516 63.9081 2.426 63.3321 2.426C62.2281 2.426 61.3941 2.642 60.8301 3.074C60.2781 3.494 60.0021 4.04 60.0021 4.712C60.0021 5.216 60.1521 5.624 60.4521 5.936C60.7641 6.236 61.1481 6.47 61.6041 6.638C62.0721 6.794 62.6961 6.968 63.4761 7.16C64.4001 7.388 65.1441 7.616 65.7081 7.844C66.2841 8.06 66.7701 8.396 67.1661 8.852C67.5621 9.296 67.7601 9.902 67.7601 10.67C67.7601 11.306 67.5861 11.888 67.2381 12.416C66.9021 12.932 66.3801 13.346 65.6721 13.658C64.9641 13.958 64.0941 14.108 63.0621 14.108ZM78.6364 9.662H70.7164C70.7884 10.646 71.1664 11.444 71.8504 12.056C72.5344 12.656 73.3984 12.956 74.4424 12.956C75.0304 12.956 75.5704 12.854 76.0624 12.65C76.5544 12.434 76.9804 12.122 77.3404 11.714L78.0604 12.542C77.6404 13.046 77.1124 13.43 76.4764 13.694C75.8524 13.958 75.1624 14.09 74.4064 14.09C73.4344 14.09 72.5704 13.886 71.8144 13.478C71.0704 13.058 70.4884 12.482 70.0684 11.75C69.6484 11.018 69.4384 10.19 69.4384 9.266C69.4384 8.342 69.6364 7.514 70.0324 6.782C70.4404 6.05 70.9924 5.48 71.6884 5.072C72.3964 4.664 73.1884 4.46 74.0644 4.46C74.9404 4.46 75.7264 4.664 76.4224 5.072C77.1184 5.48 77.6644 6.05 78.0604 6.782C78.4564 7.502 78.6544 8.33 78.6544 9.266L78.6364 9.662ZM74.0644 5.558C73.1524 5.558 72.3844 5.852 71.7604 6.44C71.1484 7.016 70.8004 7.772 70.7164 8.708H77.4304C77.3464 7.772 76.9924 7.016 76.3684 6.44C75.7564 5.852 74.9884 5.558 74.0644 5.558ZM82.4796 6.386C82.7796 5.75 83.2236 5.27 83.8116 4.946C84.4116 4.622 85.1496 4.46 86.0256 4.46V5.702L85.7196 5.684C84.7236 5.684 83.9436 5.99 83.3796 6.602C82.8156 7.214 82.5336 8.072 82.5336 9.176V14H81.2556V4.532H82.4796V6.386ZM96.6999 4.532L92.4879 14H91.1739L86.9799 4.532H88.3119L91.8579 12.596L95.4399 4.532H96.6999ZM98.4998 4.532H99.7778V14H98.4998V4.532ZM99.1478 2.462C98.8838 2.462 98.6618 2.372 98.4818 2.192C98.3018 2.012 98.2118 1.796 98.2118 1.544C98.2118 1.304 98.3018 1.094 98.4818 0.913999C98.6618 0.733999 98.8838 0.643999 99.1478 0.643999C99.4118 0.643999 99.6338 0.733999 99.8138 0.913999C99.9938 1.082 100.084 1.286 100.084 1.526C100.084 1.79 99.9938 2.012 99.8138 2.192C99.6338 2.372 99.4118 2.462 99.1478 2.462ZM107.258 14.09C106.322 14.09 105.482 13.886 104.738 13.478C104.006 13.07 103.43 12.5 103.01 11.768C102.59 11.024 102.38 10.19 102.38 9.266C102.38 8.342 102.59 7.514 103.01 6.782C103.43 6.05 104.006 5.48 104.738 5.072C105.482 4.664 106.322 4.46 107.258 4.46C108.074 4.46 108.8 4.622 109.436 4.946C110.084 5.258 110.594 5.72 110.966 6.332L110.012 6.98C109.7 6.512 109.304 6.164 108.824 5.936C108.344 5.696 107.822 5.576 107.258 5.576C106.574 5.576 105.956 5.732 105.404 6.044C104.864 6.344 104.438 6.776 104.126 7.34C103.826 7.904 103.676 8.546 103.676 9.266C103.676 9.998 103.826 10.646 104.126 11.21C104.438 11.762 104.864 12.194 105.404 12.506C105.956 12.806 106.574 12.956 107.258 12.956C107.822 12.956 108.344 12.842 108.824 12.614C109.304 12.386 109.7 12.038 110.012 11.57L110.966 12.218C110.594 12.83 110.084 13.298 109.436 13.622C108.788 13.934 108.062 14.09 107.258 14.09ZM121.562 9.662H113.642C113.714 10.646 114.092 11.444 114.776 12.056C115.46 12.656 116.324 12.956 117.368 12.956C117.956 12.956 118.496 12.854 118.988 12.65C119.48 12.434 119.906 12.122 120.266 11.714L120.986 12.542C120.566 13.046 120.038 13.43 119.402 13.694C118.778 13.958 118.088 14.09 117.332 14.09C116.36 14.09 115.496 13.886 114.74 13.478C113.996 13.058 113.414 12.482 112.994 11.75C112.574 11.018 112.364 10.19 112.364 9.266C112.364 8.342 112.562 7.514 112.958 6.782C113.366 6.05 113.918 5.48 114.614 5.072C115.322 4.664 116.114 4.46 116.99 4.46C117.866 4.46 118.652 4.664 119.348 5.072C120.044 5.48 120.59 6.05 120.986 6.782C121.382 7.502 121.58 8.33 121.58 9.266L121.562 9.662ZM116.99 5.558C116.078 5.558 115.31 5.852 114.686 6.44C114.074 7.016 113.726 7.772 113.642 8.708H120.356C120.272 7.772 119.918 7.016 119.294 6.44C118.682 5.852 117.914 5.558 116.99 5.558ZM13.3831 21.4V34H12.1051V23.92L7.15512 32.398H6.52512L1.57512 23.974V34H0.297117V21.4H1.39512L6.86712 30.742L12.2851 21.4H13.3831ZM20.5305 24.46C21.7665 24.46 22.7145 24.772 23.3745 25.396C24.0345 26.008 24.3645 26.92 24.3645 28.132V34H23.1405V32.524C22.8525 33.016 22.4265 33.4 21.8625 33.676C21.3105 33.952 20.6505 34.09 19.8825 34.09C18.8265 34.09 17.9865 33.838 17.3625 33.334C16.7385 32.83 16.4265 32.164 16.4265 31.336C16.4265 30.532 16.7145 29.884 17.2905 29.392C17.8785 28.9 18.8085 28.654 20.0805 28.654H23.0865V28.078C23.0865 27.262 22.8585 26.644 22.4025 26.224C21.9465 25.792 21.2805 25.576 20.4045 25.576C19.8045 25.576 19.2285 25.678 18.6765 25.882C18.1245 26.074 17.6505 26.344 17.2545 26.692L16.6785 25.738C17.1585 25.33 17.7345 25.018 18.4065 24.802C19.0785 24.574 19.7865 24.46 20.5305 24.46ZM20.0805 33.082C20.8005 33.082 21.4185 32.92 21.9345 32.596C22.4505 32.26 22.8345 31.78 23.0865 31.156V29.608H20.1165C18.4965 29.608 17.6865 30.172 17.6865 31.3C17.6865 31.852 17.8965 32.29 18.3165 32.614C18.7365 32.926 19.3245 33.082 20.0805 33.082ZM32.6597 24.46C33.8477 24.46 34.7897 24.808 35.4857 25.504C36.1937 26.188 36.5477 27.19 36.5477 28.51V34H35.2697V28.636C35.2697 27.652 35.0237 26.902 34.5317 26.386C34.0397 25.87 33.3377 25.612 32.4257 25.612C31.4057 25.612 30.5957 25.918 29.9957 26.53C29.4077 27.13 29.1137 27.964 29.1137 29.032V34H27.8357V24.532H29.0597V26.278C29.4077 25.702 29.8877 25.258 30.4997 24.946C31.1237 24.622 31.8437 24.46 32.6597 24.46ZM43.3294 24.46C44.5654 24.46 45.5134 24.772 46.1734 25.396C46.8334 26.008 47.1634 26.92 47.1634 28.132V34H45.9394V32.524C45.6514 33.016 45.2254 33.4 44.6614 33.676C44.1094 33.952 43.4494 34.09 42.6814 34.09C41.6254 34.09 40.7854 33.838 40.1614 33.334C39.5374 32.83 39.2254 32.164 39.2254 31.336C39.2254 30.532 39.5134 29.884 40.0894 29.392C40.6774 28.9 41.6074 28.654 42.8794 28.654H45.8854V28.078C45.8854 27.262 45.6574 26.644 45.2014 26.224C44.7454 25.792 44.0794 25.576 43.2034 25.576C42.6034 25.576 42.0274 25.678 41.4754 25.882C40.9234 26.074 40.4494 26.344 40.0534 26.692L39.4774 25.738C39.9574 25.33 40.5334 25.018 41.2054 24.802C41.8774 24.574 42.5854 24.46 43.3294 24.46ZM42.8794 33.082C43.5994 33.082 44.2174 32.92 44.7334 32.596C45.2494 32.26 45.6334 31.78 45.8854 31.156V29.608H42.9154C41.2954 29.608 40.4854 30.172 40.4854 31.3C40.4854 31.852 40.6954 32.29 41.1154 32.614C41.5354 32.926 42.1234 33.082 42.8794 33.082ZM55.4585 24.46C56.6465 24.46 57.5885 24.808 58.2845 25.504C58.9925 26.188 59.3465 27.19 59.3465 28.51V34H58.0685V28.636C58.0685 27.652 57.8225 26.902 57.3305 26.386C56.8385 25.87 56.1365 25.612 55.2245 25.612C54.2045 25.612 53.3945 25.918 52.7945 26.53C52.2065 27.13 51.9125 27.964 51.9125 29.032V34H50.6345V24.532H51.8585V26.278C52.2065 25.702 52.6865 25.258 53.2985 24.946C53.9225 24.622 54.6425 24.46 55.4585 24.46ZM71.6173 24.532V32.848C71.6173 34.456 71.2213 35.644 70.4293 36.412C69.6493 37.192 68.4673 37.582 66.8833 37.582C66.0073 37.582 65.1733 37.45 64.3813 37.186C63.6013 36.934 62.9653 36.58 62.4733 36.124L63.1213 35.152C63.5773 35.56 64.1293 35.878 64.7773 36.106C65.4373 36.334 66.1273 36.448 66.8473 36.448C68.0473 36.448 68.9293 36.166 69.4933 35.602C70.0573 35.05 70.3393 34.186 70.3393 33.01V31.804C69.9433 32.404 69.4213 32.86 68.7733 33.172C68.1373 33.484 67.4293 33.64 66.6493 33.64C65.7613 33.64 64.9513 33.448 64.2193 33.064C63.4993 32.668 62.9293 32.122 62.5093 31.426C62.1013 30.718 61.8973 29.92 61.8973 29.032C61.8973 28.144 62.1013 27.352 62.5093 26.656C62.9293 25.96 63.4993 25.42 64.2193 25.036C64.9393 24.652 65.7493 24.46 66.6493 24.46C67.4533 24.46 68.1793 24.622 68.8273 24.946C69.4753 25.27 69.9973 25.738 70.3933 26.35V24.532H71.6173ZM66.7753 32.506C67.4593 32.506 68.0773 32.362 68.6293 32.074C69.1813 31.774 69.6073 31.36 69.9073 30.832C70.2193 30.304 70.3753 29.704 70.3753 29.032C70.3753 28.36 70.2193 27.766 69.9073 27.25C69.6073 26.722 69.1813 26.314 68.6293 26.026C68.0893 25.726 67.4713 25.576 66.7753 25.576C66.0913 25.576 65.4733 25.72 64.9213 26.008C64.3813 26.296 63.9553 26.704 63.6433 27.232C63.3433 27.76 63.1933 28.36 63.1933 29.032C63.1933 29.704 63.3433 30.304 63.6433 30.832C63.9553 31.36 64.3813 31.774 64.9213 32.074C65.4733 32.362 66.0913 32.506 66.7753 32.506ZM83.4352 29.662H75.5152C75.5872 30.646 75.9652 31.444 76.6492 32.056C77.3332 32.656 78.1972 32.956 79.2412 32.956C79.8292 32.956 80.3692 32.854 80.8612 32.65C81.3532 32.434 81.7792 32.122 82.1392 31.714L82.8592 32.542C82.4392 33.046 81.9112 33.43 81.2752 33.694C80.6512 33.958 79.9612 34.09 79.2052 34.09C78.2332 34.09 77.3692 33.886 76.6132 33.478C75.8692 33.058 75.2872 32.482 74.8672 31.75C74.4472 31.018 74.2372 30.19 74.2372 29.266C74.2372 28.342 74.4352 27.514 74.8312 26.782C75.2392 26.05 75.7912 25.48 76.4872 25.072C77.1952 24.664 77.9872 24.46 78.8632 24.46C79.7392 24.46 80.5252 24.664 81.2212 25.072C81.9172 25.48 82.4632 26.05 82.8592 26.782C83.2552 27.502 83.4532 28.33 83.4532 29.266L83.4352 29.662ZM78.8632 25.558C77.9512 25.558 77.1832 25.852 76.5592 26.44C75.9472 27.016 75.5992 27.772 75.5152 28.708H82.2292C82.1452 27.772 81.7912 27.016 81.1672 26.44C80.5552 25.852 79.7872 25.558 78.8632 25.558ZM97.8625 24.46C99.0505 24.46 99.9805 24.802 100.652 25.486C101.336 26.17 101.678 27.178 101.678 28.51V34H100.4V28.636C100.4 27.652 100.16 26.902 99.6805 26.386C99.2125 25.87 98.5465 25.612 97.6825 25.612C96.6985 25.612 95.9245 25.918 95.3605 26.53C94.7965 27.13 94.5145 27.964 94.5145 29.032V34H93.2365V28.636C93.2365 27.652 92.9965 26.902 92.5165 26.386C92.0485 25.87 91.3765 25.612 90.5005 25.612C89.5285 25.612 88.7545 25.918 88.1785 26.53C87.6145 27.13 87.3325 27.964 87.3325 29.032V34H86.0545V24.532H87.2785V26.26C87.6145 25.684 88.0825 25.24 88.6825 24.928C89.2825 24.616 89.9725 24.46 90.7525 24.46C91.5445 24.46 92.2285 24.628 92.8045 24.964C93.3925 25.3 93.8305 25.798 94.1185 26.458C94.4665 25.834 94.9645 25.348 95.6125 25C96.2725 24.64 97.0225 24.46 97.8625 24.46ZM113.423 29.662H105.503C105.575 30.646 105.953 31.444 106.637 32.056C107.321 32.656 108.185 32.956 109.229 32.956C109.817 32.956 110.357 32.854 110.849 32.65C111.341 32.434 111.767 32.122 112.127 31.714L112.847 32.542C112.427 33.046 111.899 33.43 111.263 33.694C110.639 33.958 109.949 34.09 109.193 34.09C108.221 34.09 107.357 33.886 106.601 33.478C105.857 33.058 105.275 32.482 104.855 31.75C104.435 31.018 104.225 30.19 104.225 29.266C104.225 28.342 104.423 27.514 104.819 26.782C105.227 26.05 105.779 25.48 106.475 25.072C107.183 24.664 107.975 24.46 108.851 24.46C109.727 24.46 110.513 24.664 111.209 25.072C111.905 25.48 112.451 26.05 112.847 26.782C113.243 27.502 113.441 28.33 113.441 29.266L113.423 29.662ZM108.851 25.558C107.939 25.558 107.171 25.852 106.547 26.44C105.935 27.016 105.587 27.772 105.503 28.708H112.217C112.133 27.772 111.779 27.016 111.155 26.44C110.543 25.852 109.775 25.558 108.851 25.558ZM120.867 24.46C122.055 24.46 122.997 24.808 123.693 25.504C124.401 26.188 124.755 27.19 124.755 28.51V34H123.477V28.636C123.477 27.652 123.231 26.902 122.739 26.386C122.247 25.87 121.545 25.612 120.633 25.612C119.613 25.612 118.803 25.918 118.203 26.53C117.615 27.13 117.321 27.964 117.321 29.032V34H116.043V24.532H117.267V26.278C117.615 25.702 118.095 25.258 118.707 24.946C119.331 24.622 120.051 24.46 120.867 24.46ZM133.21 33.424C132.97 33.64 132.67 33.808 132.31 33.928C131.962 34.036 131.596 34.09 131.212 34.09C130.324 34.09 129.64 33.85 129.16 33.37C128.68 32.89 128.44 32.212 128.44 31.336V25.612H126.748V24.532H128.44V22.462H129.718V24.532H132.598V25.612H129.718V31.264C129.718 31.828 129.856 32.26 130.132 32.56C130.42 32.848 130.828 32.992 131.356 32.992C131.62 32.992 131.872 32.95 132.112 32.866C132.364 32.782 132.58 32.662 132.76 32.506L133.21 33.424Z" fill="#569CFF"/>
</svg>
