<svg width="49" height="49" viewBox="0 0 49 49" fill="none" xmlns="http://www.w3.org/2000/svg">
<path d="M46.629 1.58065H39.3707C39.0435 0.663081 38.1742 0 37.1452 0H26.0806C25.0516 0 24.1823 0.663081 23.8551 1.58065H16.5968C15.2896 1.58065 14.2258 2.64442 14.2258 3.95161V14.2258H11.534C10.5721 14.2258 9.62297 14.4779 8.78839 14.9553L4.53171 17.3871H0V31.6129H5.29279L8.6406 33.8448C9.55263 34.4533 10.614 34.7742 11.7094 34.7742H14.2258V46.629C14.2258 47.9362 15.2896 49 16.5968 49H46.629C47.9362 49 49 47.9362 49 46.629V3.95161C49 2.64442 47.9362 1.58065 46.629 1.58065ZM18.9677 20.5484H20.5484C22.2918 20.5484 23.7097 19.1305 23.7097 17.3871C23.7097 15.6436 22.2918 14.2258 20.5484 14.2258H18.9677V6.32258H23.8551C24.1823 7.24015 25.0516 7.90323 26.0806 7.90323H37.1452C38.1742 7.90323 39.0435 7.24015 39.3707 6.32258H44.2581V44.2581H18.9677V20.5484ZM25.2903 2.37097C25.2903 1.93471 25.6444 1.58065 26.0806 1.58065H37.1452C37.5814 1.58065 37.9355 1.93471 37.9355 2.37097V5.53226C37.9355 5.96852 37.5814 6.32258 37.1452 6.32258H26.0806C25.6444 6.32258 25.2903 5.96852 25.2903 5.53226V2.37097ZM15.8065 3.95161C15.8065 3.51535 16.1605 3.16129 16.5968 3.16129H23.7097V4.74194H17.3871V14.2258H15.8065V3.95161ZM11.7094 33.1936C10.927 33.1936 10.1691 32.9644 9.51786 32.5297L5.77173 30.0323H1.58065V18.9677H4.95216L9.57318 16.3273C10.1691 15.9866 10.8472 15.8065 11.534 15.8065H20.5484C21.4201 15.8065 22.129 16.5154 22.129 17.3871C22.129 18.2588 21.4201 18.9677 20.5484 18.9677H11.0645V19.7581C11.0645 21.937 9.29182 23.7097 7.1129 23.7097V25.2903C9.89563 25.2903 12.2042 23.226 12.589 20.5484H14.2258V33.1936H11.7094ZM47.4194 46.629C47.4194 47.0653 47.0653 47.4194 46.629 47.4194H16.5968C16.1605 47.4194 15.8065 47.0653 15.8065 46.629V20.5484H17.3871V45.8387H45.8387V4.74194H39.5161V3.16129H46.629C47.0653 3.16129 47.4194 3.51535 47.4194 3.95161V46.629Z" fill="#89BAFF"/>
<path d="M28.4516 3.16138H26.871V4.74202H28.4516V3.16138Z" fill="#89BAFF"/>
<path d="M36.3548 3.16138H34.7742V4.74202H36.3548V3.16138Z" fill="#89BAFF"/>
<path d="M37.4399 36.5201L34.7726 35.7582L34.7718 35.3575C36.2046 34.3569 37.1451 32.6988 37.1451 30.8226V29.242C37.1451 26.1921 34.6627 23.7097 31.6129 23.7097C28.563 23.7097 26.0806 26.1921 26.0806 29.242V30.8226C26.0806 32.6973 27.0203 34.3546 28.4516 35.3559V35.759L25.785 36.5201C24.0977 37.0029 22.9193 38.5654 22.9193 40.3207V42.6775H40.3064V40.3207C40.3064 38.5654 39.128 37.0029 37.4399 36.5201ZM27.6612 30.8226V29.242C27.6612 27.0631 29.4339 25.2904 31.6129 25.2904C33.7918 25.2904 35.5645 27.0631 35.5645 29.242V30.8226C35.5645 33.0015 33.7918 34.7742 31.6129 34.7742C29.4339 34.7742 27.6612 33.0015 27.6612 30.8226ZM33.1658 36.1288L31.6129 38.1987L30.0599 36.1288C30.553 36.2735 31.0739 36.3549 31.6129 36.3549C32.1519 36.3549 32.6727 36.2735 33.1658 36.1288ZM38.7258 41.0968H24.5V40.3207C24.5 39.268 25.2073 38.3299 26.2197 38.0406L28.936 37.2645L31.6129 40.8336L34.2897 37.2645L37.006 38.0406C38.0184 38.3299 38.7258 39.268 38.7258 40.3207V41.0968Z" fill="#89BAFF"/>
<path d="M22.129 9.48389H20.5483V11.0645H22.129V9.48389Z" fill="#89BAFF"/>
<path d="M42.6775 9.48389H23.7097V11.0645H42.6775V9.48389Z" fill="#89BAFF"/>
<path d="M42.6774 12.6453H25.2903V14.2259H42.6774V12.6453Z" fill="#89BAFF"/>
<path d="M42.6774 15.8064H25.2903V17.387H42.6774V15.8064Z" fill="#89BAFF"/>
<path d="M42.6774 18.9678H41.0968V20.5484H42.6774V18.9678Z" fill="#89BAFF"/>
<path d="M39.5161 18.9678H25.2903V20.5484H39.5161V18.9678Z" fill="#89BAFF"/>
</svg>
