<svg width="171" height="22" viewBox="0 0 171 22" fill="none" xmlns="http://www.w3.org/2000/svg">
<path d="M40.456 4.8V16H39.32V7.04L34.92 14.576H34.36L29.96 7.088V16H28.824V4.8H29.8L34.664 13.104L39.48 4.8H40.456ZM46.8093 7.52C47.9079 7.52 48.7506 7.79733 49.3373 8.352C49.9239 8.896 50.2173 9.70667 50.2173 10.784V16H49.1293V14.688C48.8733 15.1253 48.4946 15.4667 47.9933 15.712C47.5026 15.9573 46.9159 16.08 46.2333 16.08C45.2946 16.08 44.5479 15.856 43.9933 15.408C43.4386 14.96 43.1613 14.368 43.1613 13.632C43.1613 12.9173 43.4173 12.3413 43.9293 11.904C44.4519 11.4667 45.2786 11.248 46.4093 11.248H49.0813V10.736C49.0813 10.0107 48.8786 9.46133 48.4733 9.088C48.0679 8.704 47.4759 8.512 46.6973 8.512C46.1639 8.512 45.6519 8.60267 45.1613 8.784C44.6706 8.95467 44.2493 9.19467 43.8973 9.504L43.3853 8.656C43.8119 8.29333 44.3239 8.016 44.9213 7.824C45.5186 7.62133 46.1479 7.52 46.8093 7.52ZM46.4093 15.184C47.0493 15.184 47.5986 15.04 48.0573 14.752C48.5159 14.4533 48.8573 14.0267 49.0813 13.472V12.096H46.4413C45.0013 12.096 44.2812 12.5973 44.2812 13.6C44.2812 14.0907 44.4679 14.48 44.8413 14.768C45.2146 15.0453 45.7373 15.184 46.4093 15.184ZM57.5908 7.52C58.6468 7.52 59.4841 7.82933 60.1028 8.448C60.7321 9.056 61.0468 9.94667 61.0468 11.12V16H59.9108V11.232C59.9108 10.3573 59.6921 9.69067 59.2548 9.232C58.8174 8.77333 58.1934 8.544 57.3828 8.544C56.4761 8.544 55.7561 8.816 55.2228 9.36C54.7001 9.89333 54.4388 10.6347 54.4388 11.584V16H53.3028V7.584H54.3908V9.136C54.7001 8.624 55.1268 8.22933 55.6708 7.952C56.2254 7.664 56.8654 7.52 57.5908 7.52ZM67.0749 7.52C68.1735 7.52 69.0162 7.79733 69.6029 8.352C70.1895 8.896 70.4829 9.70667 70.4829 10.784V16H69.3949V14.688C69.1389 15.1253 68.7602 15.4667 68.2589 15.712C67.7682 15.9573 67.1815 16.08 66.4989 16.08C65.5602 16.08 64.8135 15.856 64.2589 15.408C63.7042 14.96 63.4269 14.368 63.4269 13.632C63.4269 12.9173 63.6829 12.3413 64.1949 11.904C64.7175 11.4667 65.5442 11.248 66.6749 11.248H69.3469V10.736C69.3469 10.0107 69.1442 9.46133 68.7389 9.088C68.3335 8.704 67.7415 8.512 66.9629 8.512C66.4295 8.512 65.9175 8.60267 65.4269 8.784C64.9362 8.95467 64.5149 9.19467 64.1629 9.504L63.6509 8.656C64.0775 8.29333 64.5895 8.016 65.1869 7.824C65.7842 7.62133 66.4135 7.52 67.0749 7.52ZM66.6749 15.184C67.3149 15.184 67.8642 15.04 68.3229 14.752C68.7815 14.4533 69.1229 14.0267 69.3469 13.472V12.096H66.7069C65.2669 12.096 64.5469 12.5973 64.5469 13.6C64.5469 14.0907 64.7335 14.48 65.1069 14.768C65.4802 15.0453 66.0029 15.184 66.6749 15.184ZM81.3916 7.584V14.976C81.3916 16.4053 81.0396 17.4613 80.3356 18.144C79.6423 18.8373 78.5916 19.184 77.1836 19.184C76.405 19.184 75.6636 19.0667 74.9596 18.832C74.2663 18.608 73.701 18.2933 73.2636 17.888L73.8396 17.024C74.245 17.3867 74.7356 17.6693 75.3116 17.872C75.8983 18.0747 76.5116 18.176 77.1516 18.176C78.2183 18.176 79.0023 17.9253 79.5036 17.424C80.005 16.9333 80.2556 16.1653 80.2556 15.12V14.048C79.9036 14.5813 79.4396 14.9867 78.8636 15.264C78.2983 15.5413 77.669 15.68 76.9756 15.68C76.1863 15.68 75.4663 15.5093 74.8156 15.168C74.1756 14.816 73.669 14.3307 73.2956 13.712C72.933 13.0827 72.7516 12.3733 72.7516 11.584C72.7516 10.7947 72.933 10.0907 73.2956 9.472C73.669 8.85333 74.1756 8.37333 74.8156 8.032C75.4556 7.69067 76.1756 7.52 76.9756 7.52C77.6903 7.52 78.3356 7.664 78.9116 7.952C79.4876 8.24 79.9516 8.656 80.3036 9.2V7.584H81.3916ZM77.0876 14.672C77.6956 14.672 78.245 14.544 78.7356 14.288C79.2263 14.0213 79.605 13.6533 79.8716 13.184C80.149 12.7147 80.2876 12.1813 80.2876 11.584C80.2876 10.9867 80.149 10.4587 79.8716 10C79.605 9.53067 79.2263 9.168 78.7356 8.912C78.2556 8.64533 77.7063 8.512 77.0876 8.512C76.4796 8.512 75.9303 8.64 75.4396 8.896C74.9596 9.152 74.581 9.51467 74.3036 9.984C74.037 10.4533 73.9036 10.9867 73.9036 11.584C73.9036 12.1813 74.037 12.7147 74.3036 13.184C74.581 13.6533 74.9596 14.0213 75.4396 14.288C75.9303 14.544 76.4796 14.672 77.0876 14.672ZM91.8964 12.144H84.8564C84.9204 13.0187 85.2564 13.728 85.8644 14.272C86.4724 14.8053 87.2404 15.072 88.1684 15.072C88.691 15.072 89.171 14.9813 89.6084 14.8C90.0457 14.608 90.4244 14.3307 90.7444 13.968L91.3844 14.704C91.011 15.152 90.5417 15.4933 89.9764 15.728C89.4217 15.9627 88.8084 16.08 88.1364 16.08C87.2724 16.08 86.5044 15.8987 85.8324 15.536C85.171 15.1627 84.6537 14.6507 84.2804 14C83.907 13.3493 83.7204 12.6133 83.7204 11.792C83.7204 10.9707 83.8964 10.2347 84.2484 9.584C84.611 8.93333 85.1017 8.42667 85.7204 8.064C86.3497 7.70133 87.0537 7.52 87.8324 7.52C88.611 7.52 89.3097 7.70133 89.9284 8.064C90.547 8.42667 91.0324 8.93333 91.3844 9.584C91.7364 10.224 91.9124 10.96 91.9124 11.792L91.8964 12.144ZM87.8324 8.496C87.0217 8.496 86.339 8.75733 85.7844 9.28C85.2404 9.792 84.931 10.464 84.8564 11.296H90.8244C90.7497 10.464 90.435 9.792 89.8804 9.28C89.3364 8.75733 88.6537 8.496 87.8324 8.496ZM101.74 16.096C100.908 16.096 100.108 15.9627 99.3401 15.696C98.5828 15.4293 97.9961 15.0773 97.5801 14.64L98.0441 13.728C98.4495 14.1333 98.9881 14.464 99.6601 14.72C100.332 14.9653 101.025 15.088 101.74 15.088C102.743 15.088 103.495 14.9067 103.996 14.544C104.497 14.1707 104.748 13.6907 104.748 13.104C104.748 12.656 104.609 12.2987 104.332 12.032C104.065 11.7653 103.735 11.5627 103.34 11.424C102.945 11.2747 102.396 11.1147 101.692 10.944C100.849 10.7307 100.177 10.528 99.6761 10.336C99.1748 10.1333 98.7428 9.82933 98.3801 9.424C98.0281 9.01867 97.8521 8.46933 97.8521 7.776C97.8521 7.21067 98.0015 6.69867 98.3001 6.24C98.5988 5.77067 99.0575 5.39733 99.6761 5.12C100.295 4.84267 101.063 4.704 101.98 4.704C102.62 4.704 103.244 4.79467 103.852 4.976C104.471 5.14667 105.004 5.38667 105.452 5.696L105.052 6.64C104.583 6.33067 104.081 6.10133 103.548 5.952C103.015 5.792 102.492 5.712 101.98 5.712C100.999 5.712 100.257 5.904 99.7561 6.288C99.2655 6.66133 99.0201 7.14667 99.0201 7.744C99.0201 8.192 99.1535 8.55467 99.4201 8.832C99.6975 9.09867 100.039 9.30667 100.444 9.456C100.86 9.59467 101.415 9.74933 102.108 9.92C102.929 10.1227 103.591 10.3253 104.092 10.528C104.604 10.72 105.036 11.0187 105.388 11.424C105.74 11.8187 105.916 12.3573 105.916 13.04C105.916 13.6053 105.761 14.1227 105.452 14.592C105.153 15.0507 104.689 15.4187 104.06 15.696C103.431 15.9627 102.657 16.096 101.74 16.096ZM115.584 12.144H108.544C108.608 13.0187 108.944 13.728 109.552 14.272C110.16 14.8053 110.928 15.072 111.856 15.072C112.379 15.072 112.859 14.9813 113.296 14.8C113.733 14.608 114.112 14.3307 114.432 13.968L115.072 14.704C114.699 15.152 114.229 15.4933 113.664 15.728C113.109 15.9627 112.496 16.08 111.824 16.08C110.96 16.08 110.192 15.8987 109.52 15.536C108.859 15.1627 108.341 14.6507 107.968 14C107.595 13.3493 107.408 12.6133 107.408 11.792C107.408 10.9707 107.584 10.2347 107.936 9.584C108.299 8.93333 108.789 8.42667 109.408 8.064C110.037 7.70133 110.741 7.52 111.52 7.52C112.299 7.52 112.997 7.70133 113.616 8.064C114.235 8.42667 114.72 8.93333 115.072 9.584C115.424 10.224 115.6 10.96 115.6 11.792L115.584 12.144ZM111.52 8.496C110.709 8.496 110.027 8.75733 109.472 9.28C108.928 9.792 108.619 10.464 108.544 11.296H114.512C114.437 10.464 114.123 9.792 113.568 9.28C113.024 8.75733 112.341 8.496 111.52 8.496ZM119 9.232C119.267 8.66667 119.661 8.24 120.184 7.952C120.717 7.664 121.373 7.52 122.152 7.52V8.624L121.88 8.608C120.995 8.608 120.301 8.88 119.8 9.424C119.299 9.968 119.048 10.7307 119.048 11.712V16H117.912V7.584H119V9.232ZM131.64 7.584L127.896 16H126.728L123 7.584H124.184L127.336 14.752L130.52 7.584H131.64ZM133.24 7.584H134.376V16H133.24V7.584ZM133.816 5.744C133.582 5.744 133.384 5.664 133.224 5.504C133.064 5.344 132.984 5.152 132.984 4.928C132.984 4.71467 133.064 4.528 133.224 4.368C133.384 4.208 133.582 4.128 133.816 4.128C134.051 4.128 134.248 4.208 134.408 4.368C134.568 4.51733 134.648 4.69867 134.648 4.912C134.648 5.14667 134.568 5.344 134.408 5.504C134.248 5.664 134.051 5.744 133.816 5.744ZM141.025 16.08C140.193 16.08 139.446 15.8987 138.785 15.536C138.134 15.1733 137.622 14.6667 137.249 14.016C136.876 13.3547 136.689 12.6133 136.689 11.792C136.689 10.9707 136.876 10.2347 137.249 9.584C137.622 8.93333 138.134 8.42667 138.785 8.064C139.446 7.70133 140.193 7.52 141.025 7.52C141.75 7.52 142.396 7.664 142.961 7.952C143.537 8.22933 143.99 8.64 144.321 9.184L143.473 9.76C143.196 9.344 142.844 9.03467 142.417 8.832C141.99 8.61867 141.526 8.512 141.025 8.512C140.417 8.512 139.868 8.65067 139.377 8.928C138.897 9.19467 138.518 9.57867 138.241 10.08C137.974 10.5813 137.841 11.152 137.841 11.792C137.841 12.4427 137.974 13.0187 138.241 13.52C138.518 14.0107 138.897 14.3947 139.377 14.672C139.868 14.9387 140.417 15.072 141.025 15.072C141.526 15.072 141.99 14.9707 142.417 14.768C142.844 14.5653 143.196 14.256 143.473 13.84L144.321 14.416C143.99 14.96 143.537 15.376 142.961 15.664C142.385 15.9413 141.74 16.08 141.025 16.08ZM153.74 12.144H146.7C146.764 13.0187 147.1 13.728 147.708 14.272C148.316 14.8053 149.084 15.072 150.012 15.072C150.535 15.072 151.015 14.9813 151.452 14.8C151.889 14.608 152.268 14.3307 152.588 13.968L153.228 14.704C152.855 15.152 152.385 15.4933 151.82 15.728C151.265 15.9627 150.652 16.08 149.98 16.08C149.116 16.08 148.348 15.8987 147.676 15.536C147.015 15.1627 146.497 14.6507 146.124 14C145.751 13.3493 145.564 12.6133 145.564 11.792C145.564 10.9707 145.74 10.2347 146.092 9.584C146.455 8.93333 146.945 8.42667 147.564 8.064C148.193 7.70133 148.897 7.52 149.676 7.52C150.455 7.52 151.153 7.70133 151.772 8.064C152.391 8.42667 152.876 8.93333 153.228 9.584C153.58 10.224 153.756 10.96 153.756 11.792L153.74 12.144ZM149.676 8.496C148.865 8.496 148.183 8.75733 147.628 9.28C147.084 9.792 146.775 10.464 146.7 11.296H152.668C152.593 10.464 152.279 9.792 151.724 9.28C151.18 8.75733 150.497 8.496 149.676 8.496ZM158.324 16.08C157.642 16.08 156.986 15.984 156.356 15.792C155.738 15.5893 155.252 15.3387 154.9 15.04L155.412 14.144C155.764 14.4213 156.207 14.6507 156.74 14.832C157.274 15.0027 157.828 15.088 158.404 15.088C159.172 15.088 159.738 14.9707 160.1 14.736C160.474 14.4907 160.66 14.1493 160.66 13.712C160.66 13.4027 160.559 13.1627 160.356 12.992C160.154 12.8107 159.898 12.6773 159.588 12.592C159.279 12.496 158.868 12.4053 158.356 12.32C157.674 12.192 157.124 12.064 156.708 11.936C156.292 11.7973 155.935 11.568 155.636 11.248C155.348 10.928 155.204 10.4853 155.204 9.92C155.204 9.216 155.498 8.64 156.084 8.192C156.671 7.744 157.487 7.52 158.532 7.52C159.076 7.52 159.62 7.59467 160.164 7.744C160.708 7.88267 161.156 8.06933 161.508 8.304L161.012 9.216C160.319 8.736 159.492 8.496 158.532 8.496C157.807 8.496 157.258 8.624 156.884 8.88C156.522 9.136 156.34 9.472 156.34 9.888C156.34 10.208 156.442 10.464 156.644 10.656C156.858 10.848 157.119 10.992 157.428 11.088C157.738 11.1733 158.164 11.264 158.708 11.36C159.38 11.488 159.919 11.616 160.324 11.744C160.73 11.872 161.076 12.0907 161.364 12.4C161.652 12.7093 161.796 13.136 161.796 13.68C161.796 14.416 161.487 15.0027 160.868 15.44C160.26 15.8667 159.412 16.08 158.324 16.08Z" fill="#868686"/>
<path d="M15.9375 2.79688H13.498C13.388 2.48848 13.0958 2.26562 12.75 2.26562H9.03125C8.68541 2.26562 8.39322 2.48848 8.28325 2.79688H5.84375C5.40441 2.79688 5.04688 3.15441 5.04688 3.59375V7.04688H4.14216C3.81889 7.04688 3.49988 7.13161 3.21937 7.29205L1.78872 8.10938H0.265625V12.8906H2.04452L3.1697 13.6407C3.47623 13.8453 3.83297 13.9531 4.20112 13.9531H5.04688V17.9375C5.04688 18.3768 5.40441 18.7344 5.84375 18.7344H15.9375C16.3768 18.7344 16.7344 18.3768 16.7344 17.9375V3.59375C16.7344 3.15441 16.3768 2.79688 15.9375 2.79688ZM6.64062 9.17188H7.17188C7.75784 9.17188 8.23438 8.69534 8.23438 8.10938C8.23438 7.52341 7.75784 7.04688 7.17188 7.04688H6.64062V4.39062H8.28325C8.39322 4.69902 8.68541 4.92188 9.03125 4.92188H12.75C13.0958 4.92188 13.388 4.69902 13.498 4.39062H15.1406V17.1406H6.64062V9.17188ZM8.76562 3.0625C8.76562 2.91588 8.88463 2.79688 9.03125 2.79688H12.75C12.8966 2.79688 13.0156 2.91588 13.0156 3.0625V4.125C13.0156 4.27163 12.8966 4.39062 12.75 4.39062H9.03125C8.88463 4.39062 8.76562 4.27163 8.76562 4.125V3.0625ZM5.57812 3.59375C5.57812 3.44712 5.69712 3.32812 5.84375 3.32812H8.23438V3.85938H6.10938V7.04688H5.57812V3.59375ZM4.20112 13.4219C3.93816 13.4219 3.68342 13.3448 3.46455 13.1987L2.20548 12.3594H0.796875V8.64062H1.93003L3.48314 7.75317C3.68342 7.63869 3.91133 7.57812 4.14216 7.57812H7.17188C7.46486 7.57812 7.70312 7.81639 7.70312 8.10938C7.70312 8.40236 7.46486 8.64062 7.17188 8.64062H3.98438V8.90625C3.98438 9.63858 3.38858 10.2344 2.65625 10.2344V10.7656C3.59152 10.7656 4.36741 10.0718 4.49677 9.17188H5.04688V13.4219H4.20112ZM16.2031 17.9375C16.2031 18.0841 16.0841 18.2031 15.9375 18.2031H5.84375C5.69712 18.2031 5.57812 18.0841 5.57812 17.9375V9.17188H6.10938V17.6719H15.6719V3.85938H13.5469V3.32812H15.9375C16.0841 3.32812 16.2031 3.44712 16.2031 3.59375V17.9375Z" fill="#868686"/>
<path d="M9.82812 3.32812H9.29688V3.85938H9.82812V3.32812Z" fill="#868686"/>
<path d="M12.4844 3.32812H11.9531V3.85938H12.4844V3.32812Z" fill="#868686"/>
<path d="M12.8491 14.5399L11.9526 14.2838L11.9523 14.1492C12.4339 13.8129 12.75 13.2556 12.75 12.625V12.0938C12.75 11.0687 11.9157 10.2344 10.8906 10.2344C9.86558 10.2344 9.03125 11.0687 9.03125 12.0938V12.625C9.03125 13.2551 9.34708 13.8121 9.82812 14.1486V14.2841L8.93191 14.5399C8.3648 14.7022 7.96875 15.2273 7.96875 15.8173V16.6094H13.8125V15.8173C13.8125 15.2273 13.4165 14.7022 12.8491 14.5399ZM9.5625 12.625V12.0938C9.5625 11.3614 10.1583 10.7656 10.8906 10.7656C11.623 10.7656 12.2188 11.3614 12.2188 12.0938V12.625C12.2188 13.3573 11.623 13.9531 10.8906 13.9531C10.1583 13.9531 9.5625 13.3573 9.5625 12.625ZM11.4126 14.4084L10.8906 15.1041L10.3687 14.4084C10.5344 14.457 10.7095 14.4844 10.8906 14.4844C11.0718 14.4844 11.2468 14.457 11.4126 14.4084ZM13.2812 16.0781H8.5V15.8173C8.5 15.4635 8.73773 15.1482 9.078 15.051L9.99095 14.7901L10.8906 15.9897L11.7903 14.7901L12.7033 15.051C13.0435 15.1482 13.2812 15.4635 13.2812 15.8173V16.0781Z" fill="#868686"/>
<path d="M7.70312 5.45312H7.17188V5.98438H7.70312V5.45312Z" fill="#868686"/>
<path d="M14.6094 5.45312H8.23438V5.98438H14.6094V5.45312Z" fill="#868686"/>
<path d="M14.6094 6.51562H8.76562V7.04688H14.6094V6.51562Z" fill="#868686"/>
<path d="M14.6094 7.57812H8.76562V8.10938H14.6094V7.57812Z" fill="#868686"/>
<path d="M14.6094 8.64062H14.0781V9.17188H14.6094V8.64062Z" fill="#868686"/>
<path d="M13.5469 8.64062H8.76562V9.17188H13.5469V8.64062Z" fill="#868686"/>
</svg>
