<svg width="49" height="49" viewBox="0 0 49 49" fill="none" xmlns="http://www.w3.org/2000/svg">
<path d="M26.5417 21.4375V22.4583H27.5625H42.875C44.0017 22.4583 44.9167 23.3733 44.9167 24.5C44.9167 25.6267 44.0017 26.5417 42.875 26.5417H27.5625H26.5417V27.5625V42.875C26.5417 44.0017 25.6267 44.9167 24.5 44.9167C23.3733 44.9167 22.4583 44.0017 22.4583 42.875V27.5625V26.5417H21.4375H6.125C4.99829 26.5417 4.08333 25.6267 4.08333 24.5C4.08333 23.3733 4.99829 22.4583 6.125 22.4583H21.4375H22.4583V21.4375V6.125C22.4583 4.99829 23.3733 4.08333 24.5 4.08333C25.6267 4.08333 26.5417 4.99829 26.5417 6.125V21.4375Z" stroke="#89BAFF" stroke-width="2.04167"/>
</svg>
